<?xml version="1.0" encoding="UTF-8" standalone="no"?>
<!-- Created with Inkscape (http://www.inkscape.org/) -->

<svg
   xmlns:svg="http://www.w3.org/2000/svg"
   xmlns="http://www.w3.org/2000/svg"
   version="1.1"
   width="2219.3491"
   height="2084.8958"
   id="svg2">
  <defs
     id="defs4" />
  <g
     transform="translate(760.12073,761.23234)"
     id="layer2"
     style="display:inline">
    <path
       d="m 678.71542,-121.1357 -8.1228,-10.1809 -14.36185,-5.25435 -3.1526,-8.05665 -5.6046,-10.85895 -4.90405,-2.8023 -5.60465,-11.90985 -5.25435,-8.05665 -6.65545,-8.75725 -6.6555,-5.9549 -6.6555,-11.20925 -11.90985,-17.16415 -5.25435,-7.7064 -4.20345,-8.05665 -10.50865,-8.05665 -1.0509,-8.7572 -4.55375,-11.90985 -4.90405,-9.1075 -11.20925,-23.4694 -7.3561,-7.35605 -1.7514,-11.20925 -7.0058,-10.1584 c 0,0 -4.90405,-10.5087 -7.3561,-11.20925 -2.452,-0.7006 -9.8081,-8.05665 -9.8081,-8.05665 l -3.1526,-5.60465 -5.9549,-9.1075 -12.2601,-16.1133 -8.40695,-8.05665 -3.1526,-11.90985 c 0,0 -4.55375,-9.1075 -5.25435,-10.50865 -0.7006,-1.40115 -3.5029,-4.5538 -4.55375,-6.3052 -1.05085,-1.75145 -3.5029,-10.1584 -3.5029,-10.1584 l -3.8532,-7.3561 -7.70635,-16.1133 c 0,0 -1.40115,-11.20925 -2.10175,-12.6104 -0.70055,-1.40115 -4.9043,-11.90985 -5.2543,-13.311 -0.3505,-1.40115 -4.2035,-12.9607 -4.2035,-12.9607 l -3.85315,-8.4069 -3.1526,-16.8139 -1.75145,-10.85895 -5.95495,-11.55955 -6.3052,-12.6104 -11.55955,-18.56535 -5.9549,-14.36185 -5.25435,-9.8081 -4.90405,-24.16995 -4.20345,-16.11331 -5.25435,-15.76302 -5.25435,-25.22082 -4.20345,-19.2659 -5.25435,-24.52024 -3.5029,-14.36186 c 0,0 -3.50285,-15.06244 -3.50285,-16.46359 0,-1.40116 -1.40115,-8.40694 -1.40115,-8.40694 l -1.94685,-4.95186 -48.56265,8.3385 -59.44605,11.88921 -25.75995,15.85228 -27.7415,13.87074 -13.87075,11.88921 -15.33135,0.20905 -45.53755,-0.70058 -10.859,5.60463 -15.763,7.35607 -1.40115,13.66128 c 0,0 -3.1526,17.86475 -3.1526,19.2659 0,1.40116 0,17.16417 0,17.16417 l -3.8532,6.6555 -10.85895,10.50868 -8.75725,8.75725 -7.35605,5.2543 c 0,0 -11.55955,0.7006 -12.9607,0.7006 -1.40115,0 -12.26015,1.05085 -12.26015,1.05085 l -3.50285,3.8532 -11.55955,0.70055 -5.25435,-3.1526 -21.71795,-4.55375 -8.05665,-3.5029 -6.6555,0 -3.85315,4.2035 -19.6162,3.85315 -15.763,4.5538 -7.3561,5.6046 -4.55375,5.25435 -6.3052,-2.10175 -6.6555,-10.1584 -8.40695,-5.2543 -8.05665,-5.60465 -11.55955,0 -8.05665,9.10755 c 0,0 -4.20345,7.35605 -4.90405,9.4578 -0.70055,2.1017 -4.55375,9.1075 -5.2543,11.55955 -0.7006,2.452 -5.25435,8.7572 -5.25435,10.15835 0,1.40115 -6.3052,9.4578 -6.3052,9.4578 l -10.1584,17.1642 c 0,0 -7.0058,9.1075 -7.70635,10.85895 -0.7006,1.75145 -7.3561,12.6104 -7.3561,12.6104 0,0 -3.1526,22.41855 -3.1526,24.16995 0,1.75145 -2.452,9.45785 -2.452,9.45785 l -7.3561,6.6555 -14.01155,2.452 -11.90985,4.20345 -9.8081,2.45205 -14.71215,-0.7006 -7.00575,9.10755 -5.60465,10.85895 -3.85315,18.56535 -3.1526,13.66125 -2.80235,8.40695 -22.7688,2.10175 -33.97805,3.85315 -25.5711,4.90405 -12.2601,0 -16.8139,2.45205 -3.8532,10.85895 1.0509,13.311 3.5029,11.55955 14.01155,10.15835 10.85895,10.5087 12.26015,3.85315 5.9549,5.95495 17.16415,0.70055 4.5538,9.10755 5.2543,8.05665 -1.40115,11.20925 -4.55375,10.85895 -3.8532,9.4578 -4.90405,8.05665 -2.452,16.1133 c 0,0 -2.102,12.26015 -2.452,13.6613 -0.3505,1.40115 -7.0058,10.50865 -7.0058,10.50865 l -3.42255,12.70225 8.0123,8.4867 9.39125,9.1703 5.08235,10.71705 6.5186,10.27515 2.76215,19.44545 1.6573,14.4736 4.75085,10.93805 c 0,0 5.3033,13.5897 5.9662,14.69455 0.66295,1.10485 7.40255,10.6066 7.40255,10.6066 l 3.65405,7.5539 9.6875,3.437496 9.0625,7.1875 12.1875,10.625 6.5625,10.3125 9.0625,9.375 10,11.25 2.5,6.5625 5,5 13.125,3.4375 13.125,5.625 c 0,0 4.375,8.75 5.625,8.75 1.25,0 13.125,3.125 13.125,3.125 l 7.8125,6.25 11.5625,2.1875 8.75,15.3125 7.5,7.8125 5.3125,4.0625 c 0,0 16.5625,3.4375 18.125,3.125 1.5625,-0.3125 9.6875,0.9375 9.6875,0.9375 l 8.4375,0 12.5,-1.875 16.875,-4.0625 14.375,-1.5625 7.5,0.3125 18.4375,4.375 21.25,4.375 25.625,4.375 19.6875,0 23.125,-0.9375 11.875,-2.5 20.625,0 10,5.3125 9.6875,5 10.9375,1.25 10.3125,11.5625 7.3047,9.3837 8.38495,-4.63665 8.3969,-11.04855 12.37435,-13.25825 12.3744,-3.7565 14.80505,-9.7227 c 0,0 6.40815,-5.3033 6.40815,-6.8501 0,-1.5468 -0.221,-7.734 -0.221,-7.734 l -9.50175,-4.86135 -5.74525,-2.2097 -4.86135,-5.3033 0,-4.86135 4.19845,-5.5243 2.87265,-5.3033 14.58405,-8.39685 14.80505,-3.75655 8.3969,-3.7565 6.1872,-4.64035 11.49045,-0.221 3.53555,2.87265 26.07455,2.65165 3.7565,3.7565 13.25825,2.2097 1.32585,-3.53555 20.5503,-11.4905 20.5503,-7.292 6.40815,-6.62915 14.80505,-6.18715 15.6889,-7.29205 12.1534,-12.1534 2.2097,-9.280796 7.29205,-15.6889 7.95495,-6.62915 15.68895,-11.04855 8.61785,-5.0823 8.3969,-4.8614 5.9662,-5.0823 6.1872,0.8839 5.08235,6.18715 9.5017,3.0936 14.80505,4.6404 10.38565,6.8501 5.74525,3.0936 37.56505,2.8726 43.7522,5.52425 14.36315,3.53555 9.7227,-0.221 11.04855,-1.98875 17.01475,-3.7565 12.8163,0 11.516,-2.89515 z"
       id="path3714"
       style="fill:#6e6f8a;fill-opacity:1;stroke:#000000;stroke-width:2;stroke-linecap:butt;stroke-linejoin:round;stroke-miterlimit:4;stroke-opacity:1;stroke-dasharray:none" />
    <g
       transform="translate(-744.39141,943.30969)"
       id="g4804">
      <g
         transform="matrix(0.34256219,0,0,0.34256219,1863.0532,-1502.6543)"
         id="layer1">
        <path
           d="m -77.914391,-517.84643 c -0.3647,0.25575 -0.1568,0.65295 0,0 z"
           id="path2212"
           style="fill:#485134;fill-opacity:1;fill-rule:evenodd;stroke:none" />
        <path
           d="m -173.39889,-451.23713 c 0,0.063 0,0.063 0,0 z"
           id="path2208"
           style="fill:#485134;fill-opacity:1;fill-rule:evenodd;stroke:none" />
        <path
           d="m -172.22689,-445.04963 c -5.8112,9.9924 4.975,10.57035 0,0 z"
           id="path2206"
           style="fill:#485134;fill-opacity:1;fill-rule:evenodd;stroke:none" />
        <path
           d="m -158.68009,-437.54963 c -31.5642,8.8362 6.4524,15.71955 0,0 z"
           id="path21997"
           style="fill:#485134;fill-opacity:1;fill-rule:evenodd;stroke:none" />
        <path
           d="m -121.48569,237.86557 c -10.9683,17.5758 -16.477,7.7967 -30.9744,10.40175 -41.4385,15.75585 40.0527,15.657 19.6667,12.3744 13.8513,4.02765 11.1769,5.22645 15.0061,-15.37935 1.2551,-2.80065 0.2225,-7.39815 -3.6984,-7.3968 z"
           id="path1888"
           style="fill:none;stroke:#000000;stroke-width:4.5;stroke-linecap:butt;stroke-linejoin:miter;stroke-miterlimit:2;stroke-opacity:1;stroke-dasharray:none" />
        <path
           d="m -166.09809,282.70912 c -14.2083,11.66415 8.0624,16.0758 0,0 z"
           id="path1890"
           style="fill:none;stroke:#000000;stroke-width:4.5;stroke-linecap:butt;stroke-linejoin:miter;stroke-miterlimit:2;stroke-opacity:1;stroke-dasharray:none" />
        <path
           d="m -57.687491,325.93461 c -12.8298,9.72795 20.3254,24.41025 0,0 z"
           id="path1896"
           style="fill:none;stroke:#000000;stroke-width:4.5;stroke-linecap:butt;stroke-linejoin:miter;stroke-miterlimit:2;stroke-opacity:1;stroke-dasharray:none" />
        <path
           d="m -134.43019,331.25121 c -16.9922,8.5173 12.0882,12.24405 0,0 z"
           id="path1898"
           style="fill:none;stroke:#000000;stroke-width:4.5;stroke-linecap:butt;stroke-linejoin:miter;stroke-miterlimit:2;stroke-opacity:1;stroke-dasharray:none" />
        <path
           d="m 226.63011,588.06173 c -14.9526,14.3478 4.8539,13.224 0.9246,-0.2311"
           id="path1902"
           style="fill:none;stroke:#000000;stroke-width:4.5;stroke-linecap:butt;stroke-linejoin:miter;stroke-miterlimit:2;stroke-opacity:1;stroke-dasharray:none" />
        <path
           d="m 261.53421,-301.41353 c -11.6143,-2.7798 -7.8439,6.81555 0,0 z"
           id="path1957"
           style="fill:none;stroke:#000000;stroke-width:4.5;stroke-linecap:butt;stroke-linejoin:miter;stroke-miterlimit:2;stroke-opacity:1;stroke-dasharray:none" />
        <path
           d="m 271.93601,-299.79533 c -6.6195,5.6331 9.2353,3.93315 0,0 z"
           id="path1959"
           style="fill:none;stroke:#000000;stroke-width:4.5;stroke-linecap:butt;stroke-linejoin:miter;stroke-miterlimit:2;stroke-opacity:1;stroke-dasharray:none" />
        <path
           d="m 356.07561,621.80993 c -37.10501,-1.1343 19.7661,22.8404 0,0 z"
           id="path4280"
           style="fill:none;stroke:#000000;stroke-width:4.5;stroke-linecap:butt;stroke-linejoin:miter;stroke-miterlimit:2;stroke-opacity:1" />
        <path
           d="m 366.70851,617.64923 c -13.1725,13.227 10.97,-0.3661 0,0 z"
           id="path4278"
           style="fill:none;stroke:#000000;stroke-width:4.5;stroke-linecap:butt;stroke-linejoin:miter;stroke-miterlimit:2;stroke-opacity:1" />
        <path
           d="m 395.14041,655.78943 c -19.0398,7.5294 21.9345,-0.1759 0,0 z"
           id="path4276"
           style="fill:none;stroke:#000000;stroke-width:4.5;stroke-linecap:butt;stroke-linejoin:miter;stroke-miterlimit:2;stroke-opacity:1" />
        <path
           d="m -521.14849,3.0144704 c 20.4451,-16.3071004 41.6113,-4.43415 26.8137,22.1906996 -24.4283,11.313 -31.3196,54.22665 4.4881,40.00125 23.6922,-5.40525 51.4956,-12.94725 64.6265,-32.14215 6.8515,-11.4189 6.2934,-36.0113996 26.8137,-38.6023496 17.7153,-9.2521504 5.7166,-31.2925504 27.9694,-33.5172004 14.5802,-18.1605 39.5027,-16.13295 54.3209,-7.85925 22.8981,-3.28365 27.6082,27.22515 39.0648,9.4773 18.9645,9.3978 22.951,18.5274 41.1451,27.9694504 11.6073,11.59605 21.5624,14.76705 38.1402,26.3513996 -7.4545,-22.3951496 18.2279,8.49675 32.3615,6.7035 24.9961,19.44795 26.9517,51.9174 26.8137,77.6673 -0.4331,14.85855 12.7188,28.1643 21.7282,42.53205 11.7176,20.44695 20.665099,51.02355 4.6232,73.96875 2.3881,20.3214 31.376399,-10.80405 40.913999,16.4118 -15.0678,25.0851 15.1597,18.261 27.0448,32.36145 4.1453,11.83095 16.0916,12.8082 17.1053,25.8891"
           id="path4274"
           style="fill:none;stroke:#000000;stroke-width:4.5;stroke-linecap:butt;stroke-linejoin:miter;stroke-miterlimit:2;stroke-opacity:1" />
        <path
           d="m -27.406591,291.72412 c 19.4807,5.88465 -10.3878,29.85494 -1.8492,28.89404 6.6348,23.50905 24.1367,-12.34875 42.9944,5.0853 27.2662,7.6419 40.9693,30.57825 51.0847,54.32085"
           id="path4272"
           style="fill:none;stroke:#000000;stroke-width:4.5;stroke-linecap:butt;stroke-linejoin:miter;stroke-miterlimit:2;stroke-opacity:1" />
        <path
           d="m 64.361009,379.56201 c 7.7114,16.8147 30.9573,13.02915 43.456701,30.51225 17.616,11.62237 9.1356,39.29737 33.9795,42.30097 15.3921,11.8765 27.7144,34.7311 38.6025,45.3058 13.7641,4.9379 32.0122,2.2298 45.0747,18.0299 8.7705,28.8199 18.6012,17.5692 39.5271,10.8642 19.8309,-7.1775 34.5399,21.1318 43.9189,11.0953 9.54409,-19.7338 39.83101,11.7941 45.306,28.6629 -0.927,10.9671 10.8965,15.89 12.7133,26.1203"
           id="path4270"
           style="fill:none;stroke:#000000;stroke-width:4.5;stroke-linecap:butt;stroke-linejoin:miter;stroke-miterlimit:2;stroke-opacity:1" />
        <path
           d="m 366.93971,592.22243 c 6.7962,34.1907 6.8266,10.3922 19.291,22.6368 16.6512,-18.4258 32.9516,4.4109 44.0448,15.5034 -16.4269,9.6215 -32.7057,30.861 -2.3115,16.1807 11.3628,-6.1658 5.1648,2.7172 27.9695,-4.1607"
           id="path4268"
           style="fill:none;stroke:#000000;stroke-width:4.5;stroke-linecap:butt;stroke-linejoin:miter;stroke-miterlimit:2;stroke-opacity:1" />
        <path
           d="m 456.16461,642.38263 c 13.2518,-16.3964 32.6894,10.3233 36.7533,27.276 17.5257,17.7154 -6.6382,32.0727 -3.6984,45.0747 13.767,6.7233 27.8087,11.8647 42.5321,20.8038 7.8675,15.933 7.9935,20.6094 29.5875,18.261 13.1157,-25.5398 36.8518,-4.1024 41.3763,13.1757 9.5043,17.4888 2.9206,40.6206 15.4872,59.4063 11.5072,18.5932 27.6277,38.4769 25.6579,63.7981 -3.7909,25.4598 14.9586,43.3337 23.5776,62.6423 1.3169,28.2712 -21.5487,22.6956 -37.6779,29.5876 -36.0826,6.8487 13.3551,28.06677 -10.8642,47.38617 -0.6679,2.6721 -1.9479,5.1659 -2.5426,7.8593"
           id="path4266"
           style="fill:none;stroke:#000000;stroke-width:4.5;stroke-linecap:butt;stroke-linejoin:miter;stroke-miterlimit:2;stroke-opacity:1" />
        <path
           d="m 354.63618,237.86632 c 8.82594,29.25052 20.48171,56.88269 45.58953,76.74179 22.8354,14.52585 33.7224,44.5044 62.8736,51.08475 -0.74885,6.5607 4.14801,14.58915 7.4391,18.03772 3.2911,3.44857 4.97642,2.31726 10.16257,4.37041 10.3723,4.10628 22.38983,7.13842 27.47303,15.96322 22.7605,9.27981 51.5842,12.52502 76.2804,5.08545 24.3784,11.24057 55.3758,-17.9595 75.1245,6.47227 9.0307,10.6227 0.5574,29.9559 -16.4118,36.5221 -20.2295,5.8202 -28.5183,27.3623 -11.7888,42.3009 35.6523,23.4897 70.7725,37.0778 108.8728,53.3963 37.7804,11.1526 71.5515,32.1273 98.9334,61.0242 21.8642,4.2127 37.4444,21.0402 57.7883,25.1956 15.1114,1.4607 13.6531,21.0611 27.0448,30.9746 25.6349,14.8887 49.1132,44.6956 53.1651,70.9638 -11.4571,14.6358 -15.5458,34.5295 -19.8792,54.3208 -17.4028,-5.7684 -40.7449,-13.9344 -50.8536,-33.5172 8.8781,-15.4876 -9.1846,-29.1954 -11.5576,-45.537 -19.7166,-17.2366 -54.5903,1.0704 -76.2804,-19.1856 -25.1118,-5.9698 -5.7578,-24.7062 -32.8236,-29.3565 -33.2616,7.4403 -42.8198,48.3816 -59.4063,69.1148 -12.351,18.5305 -0.473,38.1841 -21.4971,54.552 -3.8607,17.4639 6.9477,39.6258 29.8186,35.5974 16.4184,2.5156 31.8315,21.4143 47.3862,30.7434 18.1442,8.1328 1.6248,32.9451 8.3216,48.0798 -6.5922,21.2037 22.3969,28.4022 -3.6984,45.9993 -13.2495,-4.7682 -35.4839,-9.0957 -53.1651,6.7033 -33.113,12.9407 -15.3972,48.61437 -18.4923,75.81807 -17.1423,19.5791 -42.4653,26.3903 -54.552,50.6225 -0.5192,24.4431 -16.0526,46.1367 -42.0698,36.0598 -20.7255,12.8669 -37.7356,-20.2956 -30.0498,-33.9795 -14.0263,-26.7981 29.2877,-19.4938 27.5072,-44.8435 M 354.63618,237.86632 c -8.82593,-29.25052 -14.82202,-60.1194 -28.61048,-86.4519 -10.322,-20.14935 -7.5215,-46.69005 -29.81869,-55.9389 -16.3254,7.0824 -38.3563,-20.09055 -53.1651,-32.13015 -17.5822,-18.6774 -39.0652,-28.0569 -61.2553,-39.29595 -16.6445,-19.7771996 -39.588,-35.77665 -41.8386,-64.26045 -4.7417,-12.28725 -8.6226,-36.2856 -9.2462,-51.3159 -4.9261,-11.1138 -4.4235,-44.25165 7.1657,-39.5271 3.5368,-6.1047 4.4331,13.182 13.8691,4.1607 -5.6622,-29.89995 2.3349,7.01055 9.4773,-12.4821 7.1162,-12.0966 0.3417,-29.11845 -13.1757,-28.20075 0.1935,5.42175 -9.9042,-14.8476 -8.5527,-27.50715 -14.0353,-15.0198 2.9826,-37.8501 7.397,-52.00935 -13.9625,12.7725 -15.1362,42.04845 -15.4872,47.6175 -6.6068,-8.36085 -12.0246,-14.6553 -14.5626,-26.8137 -0.4958,-12.04815 13.6984,-30.69225 27.276,-17.10525 -19.3056,-13.52565 20.9479,-28.74315 12.0199,-23.1153 17.9546,-10.9911 18.7925,3.9525 -4.8543,12.7134 -11.9311,9.2076 10.2498,8.34165 21.4973,-2.3115 26.38,-4.1397 42.69,-34.03545 68.19,-28.43175 24.8962,-17.70975 -11.7819,-5.3832 5.3164,-25.4268 10.9667,-3.6327 35.8566,3.54135 37.2156,17.10525 28.4946,1.02705 9.408,-30.9924 33.97949,-14.1003 8.025,11.9112 32.59548,31.10235 8.5526,27.276 26.95891,16.99845 29.62891,-11.90145 12.0199,-26.3514 -20.9086,-4.7991 -36.61719,-22.3746 -22.1905,-39.9894 4.3177,-16.7436 -29.43919,7.2759 -19.64809,-19.87905"
           id="path4264"
           style="fill:none;stroke:#000000;stroke-width:4.5;stroke-linecap:butt;stroke-linejoin:miter;stroke-miterlimit:2;stroke-opacity:1" />
        <path
           d="m 296.90051,-365.90498 c 13.0957,-8.27655 36.75149,-28.01445 6.7035,-31.43685 -15.9237,2.98875 -28.8768,-9.68205 -13.638,-26.3514 8.0743,-14.8917 31.13609,-12.6417 36.75309,-27.04485 -2.0941,-18.3951 -27.83429,-11.0334 -41.83859,-16.8741 -16.038,6.23625 -32.2524,-6.61305 -51.0846,-4.85415 -20.4757,-0.69885 -32.1763,-8.97076 -48.3109,-12.94456 -16.3253,0.2757 -39.3219,-2.6124 -44.3813,-23.34644 -7.0323,-17.50515 -20.0427,-19.6983 -24.5022,-33.05475 -19.448101,-12.27255 31.7307,-33.3366 -2.7738,-27.04485 -21.114901,1.68825 -39.147301,20.93235 -58.712801,20.1102 -13.6044,-5.5878 -28.4879,-8.9517 -40.6829,2.08035 -21.669,-8.3433 -47.523,3.16455 -46.6927,27.96945 -5.736,20.35965 -31.9191,9.70455 -46.2306,4.8543 13.9416,-27.97395 -51.787399,3.5661 -37.446799,-5.3166 0.5256,15.1671 -17.2194,31.36139 -2.0803,37.90904 18.772199,15.91126 -11.5101,24.88981 -21.7283,12.71341 -0.7357,-18.73156 -22.1178,-7.87605 -30.0499,6.24105 -12.9882,25.44105 27.9942,20.1288 6.9346,40.914 20.7828,20.86965 -7.8964,28.77585 -13.8691,9.24615 3.3837,-25.87245 -45.8216,1.6278 -38.3714,-6.0099 -12.6966,19.3845 -44.9533,-11.3616 -33.7483,-32.82375 -8.4344,-1.64325 -35.4584,-6.06825 -27.7383,13.40685 10.2162,23.7489 -9.2867,45.8976 -25.4268,61.02435 -8.25,13.0281 -15.0293,30.7572 -0.4623,41.60745 -6.5153,18.1101 -25.1747,12.36825 -21.266,-5.31645 -21.0244,-12.52695 -5.5915,-25.39845 -15.9495,-34.67295 -20.4484,3.84915 -31.3239,-14.11695 -43.4568,-27.50715 -17.4873,-10.21785 12.6974,-40.1226 -11.0952,-43.6878 -19.3693,5.17755 -10.8295,27.9339 -33.5172,32.59245 -20.6167,4.6221 18.8918,33.92145 -14.3314,38.1402 -4.6683,20.0004 -22.9331,25.39455 -33.2859,33.2859 -15.6399,-4.5906 -31.9011,-19.8696 -47.1552,-2.54265 -14.151,5.502 -28.4027,9.7347 -39.9894,11.7888 -4.5309,-2.40675 -2.627,4.77585 -7.397,4.1607"
           id="path4262"
           style="fill:none;stroke:#000000;stroke-width:4.5;stroke-linecap:butt;stroke-linejoin:miter;stroke-miterlimit:2;stroke-opacity:1" />
        <path
           d="m -568.76589,-328.92068 c -9.8616,-28.4238 -15.5704,6.21015 -35.5975,6.2412 -16.5833,12.8463 6.3342,38.3298 21.9595,36.05985 -10.3206,19.1382 5.4689,30.75615 20.5725,43.6878 -6.858,9.9888 0.2169,37.17345 -19.1856,38.1402 -13.9552,15.6081 -29.8887,11.7264 -46.4617,17.56755 -18.3884,13.21635 19.111,20.2233 10.4019,38.1402 5.9604,23.9727 40.8426,4.34685 36.5221,29.81865 16.2447,20.5446 -15.2332,13.46085 -11.5576,35.8287 -22.8593,14.68785 10.8258,25.85985 -5.5478,41.3763 13.6929,13.9428 12.8034,30.1329 33.9795,31.20555 11.3826,4.1445004 44.2755,11.41920036 34.2107,13.6380004 1.665,5.6742 7.4046,-0.9159 10.4017,0"
           id="path1906"
           style="fill:none;stroke:#000000;stroke-width:4.5;stroke-linecap:butt;stroke-linejoin:miter;stroke-miterlimit:2;stroke-opacity:1" />
        <path
           d="m 141.23901,1104.8626 c -10.8204,-1.202 2.192,-10.7909 0,0 z m -3.5959,8.4994 c -48.184401,-10.8805 28.5522,14.5181 0,0 z m -35.4686,-9.6436 c -1.1046,16.1488 -0.8811,3.1564 0,0 z m -6.047501,197.9374 c -17.8379,-9.5742 -12.5264,21.6108 3.7593,15.5277 5.190701,-7.0969 2.398501,-11.0067 -3.7593,-15.5277 z m 77.638501,220.1665 c -26.0967,-3.1524 20.2599,7.0475 0,0 z m 38.7375,-59.0052 c -12.543,-0.077 6.9948,9.228 0,0 z m 318.0928,-500.05697 c -17.6247,10.5732 15.4674,4.1343 0,0 z m -20.5726,28.6629 c -8.0988,2.7114 4.2057,6.298 0,0 z m -27.5072,10.17067 c -26.6926,-1.82827 8.2023,20.774 0,0 z m 8.3216,11.3265 c -10.8636,21.0989 18.4962,6.0596 0,0 l 0,0 z m 5.3164,19.1856 c -0.2725,5.5662 -0.9019,1.8027 0,0 z m -242.7886,-54.73387 c 8.8627,13.657 3.9715,5.3637 0,0 z m 277.1067,248.24457 c -34.052,-5.0658 -10.6163,-44.2049 -2.5113,-63.8735 2.32,-25.4071 23.2836,-45.7321 36.9396,-68.6488 10.6626,-18.1665 36.6673,-50.4054 2.9419,-38.901 -25.7505,27.3793 -36.997,-14.7668 -40.2085,18.3064 -9.1016,13.6191 -18.7562,5.8764 -29.9113,3.5959 -20.8855,-15.7394 -38.1151,8.3945 -56.717,16.018 -22.2422,9.4723 -49.9476,9.5589 -70.2833,4.5766 -17.7118,2.1464 -56.3287,22.6203 -66.3604,-7.8456 -17.042,4.4843 -28.6872,-36.352 -46.0929,-16.9987 -26.5161,-11.2379 -17.5628,43.1983 -49.6886,20.2677 -15.0787,-28.5564 -11.9151,-22.2411 -25.1713,-3.269 -26.9724,2.4239 -27.89,31.4447 -30.0747,47.4005 0.3285,15.8086 23.7351,36.0019 38.2473,40.8624 26.9802,-12.7614 42.7699,13.5088 64.0722,16.6717 12.2226,15.4218 31.7881,29.7684 51.9769,33.9975 17.68699,17.0645 38.24361,32.9748 64.0722,28.1135 34.092,-1.0763 49.7741,32.1391 63.4185,55.2459 23.2836,10.0722 43.8864,9.7524 65.2995,13.0129 31.2192,20.6126 5.6022,-19.9461 22.6364,-36.8766 23.1615,-18.8241 19.4449,-14.2053 17.9794,-32.3629 -34.1214,-17.2013 1.7527,-16.2312 -10.5646,-29.2929 z m -87.5052,-222.0926 c -13.3011,-3.89107 9.8484,11.1083 0.8173,-0.1635 m -28.9306,4.9035 c -6.9869,-2.9136 1.1037,7.3353 0,0 z"
           id="path1968"
           style="fill:none;stroke:#000000;stroke-width:4.5;stroke-linecap:butt;stroke-linejoin:miter;stroke-miterlimit:2;stroke-opacity:1" />
        <path
           d="m -255.78459,526.92403 c -15.1203,18.9078 8.4426,14.1475 0,0 z m -26.7655,2.953 c -16.1438,-0.394 -0.8805,26.1819 -27,23.4845 -9.3321,11.784 -29.22,38.8389 -29.7657,35.3437 -23.6517,6.5534 -40.0589,28.9779 -65.6718,15.6563 -24.4272,-30.0458 -11.1561,-20.0457 -21.2813,8.8593 4.9602,12.5647 -9.8286,51.8229 6.5625,31.3594 -0.936,8.8401 30.1812,15.7797 23.8593,42.5156 15.2342,12.6982 7.8605,33.0447 12.422,52.6407 -20.1912,-0.2688 4.3992,35.29 -4.5938,35.953 34.7319,-14.0875 1.0434,30.3615 0.6563,30.375 6.8902,23.1318 -14.0706,44.3016 -7.5,62.7657 -1.2731,19.9643 -0.9842,38.3495 18.9375,51 11.2488,10.6989 8.1946,47.9817 26.1562,20.9063 11.9532,19.425 47.4545,-18.6348 38.5781,-9.4688 -2.2845,-25.0074 6.508,-42.1266 29.4375,-40.5468 19.44,4.038 46.3258,38.5848 45.75,2.2968 8.5804,-20.9047 8.0335,-44.3259 12.4219,-68.2969 -0.6637,-26.8695 5.4821,-49.4888 6.2343,-75.5156 0.048,-16.2601 -24.3996,-44.3221 4.2188,-61.125 19.4382,-13.7758 6.8382,-37.7152 -0.5963,-48.061 4.5267,-10.9554 -3.7404,-44.4935 -6.9037,-38.2359 0.909,-6.5607 -5.493,-10.83 -16.3593,-11.7656 20.5302,-25.8687 -11.9522,-8.4178 -3.1059,-25.9489 7.5759,-21.4509 -16.6148,-3.2384 -23.0504,-21.1604 -17.2318,-0.2053 -7.6938,-2.2419 -19.4062,-13.0314 z m 33.1405,1.922 c -13.4353,18.9099 11.6517,12.7209 0,0 z m -156.703,23.0625 c -0.5426,0 0.249,0.6471 0,0 z m -0.046,0.2812 c -12.219,5.139 -13.9883,40.2209 -6.375,13.9218 2.6664,-5.1279 20.2371,0.2807 6.375,-13.9218 z m 181.3125,19.4063 c -8.6807,6.1225 10.3762,6.9042 0,0 z m 11.2968,15.0468 c -17.6256,9.2526 6.0778,8.3077 0,0 z m -194.4845,307.2189 c -29.9311,4.6552 14.0153,32.2419 0,0 z m 10.4532,12.1875 c -0.6421,-0.1005 0.1245,0.291 0,0 z m 0,0.093 c -12.7759,39.4833 29.9354,15.721 2.6291,2.4082 l -0.8948,-1.4707 -1.7343,-0.9375 z"
           id="path1911"
           style="fill:none;stroke:#000000;stroke-width:4.5;stroke-linecap:butt;stroke-linejoin:miter;stroke-miterlimit:2;stroke-opacity:1;stroke-dasharray:none" />
        <path
           d="m 605.10891,766.84883 c 17.634,-38.3677 46.5257,24.2243 79.7634,-5.2303 5.9663,-19.0259 16.632,-46.2639 41.8431,-30.0747"
           id="path4653"
           style="fill:none;stroke:#000000;stroke-width:3;stroke-linecap:butt;stroke-linejoin:miter;stroke-miterlimit:3;stroke-opacity:1;stroke-dasharray:none" />
        <path
           d="m 622.10771,551.58583 c -12.8231,17.1331 -33.1379,2.049 -47.0735,15.2008"
           id="path5558"
           style="fill:none;stroke:#000000;stroke-width:3;stroke-linecap:butt;stroke-linejoin:miter;stroke-miterlimit:3;stroke-opacity:1;stroke-dasharray:none" />
        <path
           d="m 622.76151,551.09543 c 26.5737,27.3458 2.444,34.2681 46.4196,43.1507 0.9116,54.8395 82.089,4.0402 63.4185,61.3968 -0.075,18.924 12.6881,13.126 20.9216,30.135"
           id="path4663"
           style="fill:none;stroke:#000000;stroke-width:3;stroke-linecap:butt;stroke-linejoin:miter;stroke-miterlimit:2;stroke-opacity:1;stroke-dasharray:none" />
        <path
           d="m 521.74961,409.54806 c -18.0693,22.81717 15.0054,49.50617 -19.9409,54.59227 -25.4544,5.2945 15.7941,36.5757 10.7877,53.9383 28.7487,2.456 10.5908,45.005 40.2086,41.1893 7.5934,-2.2736 16.5442,4.2093 23.2099,7.5187"
           id="path4669"
           style="fill:none;stroke:#000000;stroke-width:3;stroke-linecap:butt;stroke-linejoin:miter;stroke-miterlimit:4;stroke-opacity:1;stroke-dasharray:none" />
        <path
           d="m 575.68791,566.13283 c 18.849,36.0535 -39.718,25.665 -23.8636,51.9769 14.7847,18.5295 14.5141,38.684 33.6706,57.8612 24.599,20.3563 28.605,33.7629 9.4802,58.1881 -1.5888,4.8408 -1.2557,10.0443 -1.9614,15.0374"
           id="path7330"
           style="fill:none;stroke:#000000;stroke-width:3;stroke-linecap:butt;stroke-linejoin:miter;stroke-miterlimit:3;stroke-opacity:1;stroke-dasharray:none" />
        <path
           d="m 331.4944,535.40423 c 27.32891,5.8304 16.23402,-65.1747 35.30501,-31.7091 15.8246,9.506 17.9802,-38.149 49.3619,-5.5573 22.3438,27.0195 46.6704,-6.1748 63.4183,0.6538 5.5994,-4.674 11.43567,-10.4646 19.51817,-10.4608"
           id="path8227"
           style="fill:none;stroke:#000000;stroke-width:3;stroke-linecap:butt;stroke-linejoin:miter;stroke-miterlimit:2;stroke-opacity:1;stroke-dasharray:none" />
        <path
           d="m 357.57368,450.17657 c 3.67346,3.97317 9.17133,12.60311 9.87963,20.17476 0.7614,7.4577 -8.801,18.54322 -5.0108,26.14442"
           id="path4258"
           style="fill:none;stroke:#000000;stroke-width:3;stroke-linecap:butt;stroke-linejoin:miter;stroke-miterlimit:2;stroke-opacity:1;stroke-dasharray:none" />
        <path
           d="m 277.55601,274.21192 c -18.2529,-27.5781 -36.9133,8.06835 -60.8032,8.8263 -20.4776,3.9732 -19.9317,47.36009 -40.2087,31.38224 3.3798,35.19075 -35.8698,17.24085 -25.1712,-8.49945 -29.8884,17.05185 -23.2374,-53.38964 -49.3617,-27.78629 -30.446401,3.91065 -7.658101,-42.71715 -34.978201,-28.4403 -29.3075,-0.825 10.9575,31.73805 -22.883,40.20855 -18.6339,11.8215 0.4785,24.90074 -25.825,36.61274"
           id="path10022"
           style="fill:none;stroke:#000000;stroke-width:3;stroke-linecap:butt;stroke-linejoin:miter;stroke-miterlimit:4;stroke-opacity:1;stroke-dasharray:none" />
        <path
           d="m 264.53921,238.79017 c 3.9733,10.4118 -10.1489,13.63425 -10.1708,22.65285"
           id="path10915"
           style="fill:none;stroke:#000000;stroke-width:3;stroke-linecap:butt;stroke-linejoin:miter;stroke-miterlimit:2;stroke-opacity:1;stroke-dasharray:none" />
        <path
           d="m 264.53921,237.40327 c -20.3921,-6.44175 -33.7067,-1.3257 -45.9995,-13.1757 -0.1776,-16.68165 -16.2529,-29.14305 -9.246,-45.53715"
           id="path10911"
           style="fill:none;stroke:#000000;stroke-width:3;stroke-linecap:butt;stroke-linejoin:miter;stroke-miterlimit:2;stroke-opacity:1;stroke-dasharray:none" />
        <path
           d="m 162.60081,37.22512 c 1.5468,13.96575 9.9149,27.38655 30.0498,15.25605 9.7427,-4.73205 -5.1859,-11.5575 4.6232,-18.4923"
           id="path16252"
           style="fill:none;stroke:#000000;stroke-width:3;stroke-linecap:butt;stroke-linejoin:miter;stroke-miterlimit:4;stroke-opacity:1;stroke-dasharray:none" />
        <path
           d="m 148.84731,35.72257 c 12.1268,-5.6472 13.7868,-16.9533 14.6781,2.6583"
           id="path16250"
           style="fill:none;stroke:#000000;stroke-width:4.5;stroke-linecap:butt;stroke-linejoin:miter;stroke-miterlimit:4;stroke-opacity:1;stroke-dasharray:none" />
        <path
           d="m 106.19961,74.67187 c 1.1924,-21.2424 5.7083,-29.6328 22.4219,-36.52215 4.9582,-5.52795 14.7567,0.2358 21.2659,-2.54265"
           id="path12693"
           style="fill:none;stroke:#000000;stroke-width:3;stroke-linecap:butt;stroke-linejoin:miter;stroke-miterlimit:4;stroke-opacity:1;stroke-dasharray:none" />
        <path
           d="m 148.73171,36.06937 c -1.7078,12.88755 12.3883,13.96335 14.7937,1.8492"
           id="path12695"
           style="fill:none;stroke:#000000;stroke-width:4.5;stroke-linecap:butt;stroke-linejoin:miter;stroke-miterlimit:4;stroke-opacity:1;stroke-dasharray:none" />
        <path
           d="m 105.73731,75.82762 c 22.9527,3.8499 7.364,-20.8749 27.0449,-4.16085 25.0812,18.3042 -8.1656,3.30225 -14.5626,22.653 14.8966,13.2027 23.2267,7.34685 26.3514,24.9645 17.781,-1.16535 22.962,25.92585 42.0697,13.1757 11.0444,-4.63605 11.3969,27.0402 19.4168,36.52215 1.4953,3.37065 1.5774,7.0761 3.9297,10.1706"
           id="path12691"
           style="fill:none;stroke:#000000;stroke-width:3;stroke-linecap:butt;stroke-linejoin:miter;stroke-miterlimit:4;stroke-opacity:1" />
        <path
           d="m 118.45071,100.32967 c -8.5207,21.0219 -5.5618,19.74615 -19.879201,37.90905 8.275401,15.4041 43.205001,12.0276 21.266101,25.65795 -14.7159,8.3094 -35.527301,4.1844 -40.220501,24.9645 7.9012,14.98125 7.8807,26.15775 3.4672,45.9993 -1.8909,3.48915 -4.7157,6.04245 -7.3968,8.5527"
           id="path12701"
           style="fill:none;stroke:#000000;stroke-width:3;stroke-linecap:butt;stroke-linejoin:miter;stroke-miterlimit:4;stroke-opacity:1;stroke-dasharray:none" />
        <path
           d="m 108.22221,75.45727 c -21.072701,-5.99925 -52.530401,-8.964 -59.495701,-34.65135 -10.1158,-16.86225 23.2449,-42.4343996 -14.7103,-35.6320496 -10.062,-13.6311 -30.0396,-22.7023504 -47.4005,-7.8456 1.4834,28.5776996 -34.5759,-3.339 -46.0927,13.7297996 -20.6439,-21.66345 -45.230099,6.2187 -60.149399,-26.80575 -5.853,-4.88595 -13.2866,-15.39885 -21.9023,-9.48"
           id="path17141"
           style="fill:none;stroke:#000000;stroke-width:3;stroke-linecap:butt;stroke-linejoin:miter;stroke-miterlimit:2;stroke-opacity:1;stroke-dasharray:none" />
        <path
           d="m -174.54549,18.57682 c 6.87,-25.3010996 -29.8924,-19.43159964 -29.094,-36.2859 -20.1579,-10.2525 -12.3853,-55.98945 18.6332,-42.4968 8.6949,18.4269 28.7491,26.43495 45.439,34.6512"
           id="path17143"
           style="fill:none;stroke:#000000;stroke-width:3;stroke-linecap:butt;stroke-linejoin:miter;stroke-miterlimit:2;stroke-opacity:1;stroke-dasharray:none" />
        <path
           d="m 133.72041,-135.06578 c -1.7157,-25.9971 -40.255801,-14.082 -61.457101,-19.94085 -28.1682,24.87315 -47.7801,6.1239 -77.5506,1.9614 -26.8494,-7.18785 -55.1839,21.21705 -72.1692,-1.9614 -5.8302,-17.56395 -18.825,23.1243 -33.670599,9.80685"
           id="path18044"
           style="fill:none;stroke:#000000;stroke-width:3;stroke-linecap:butt;stroke-linejoin:miter;stroke-miterlimit:2;stroke-opacity:1;stroke-dasharray:none" />
        <path
           d="m -108.83869,-144.54593 c -20.2869,-15.3492 -51.129,-18.37935 -68.9759,-32.36295 -18.4441,-30.6234 -15.883,12.6459 -36.9715,-4.84725 -7.6983,13.13325 -28.9143,-15.85605 -35.2731,0.59745 -24.2217,8.09805 -29.82,41.06625 -21.2484,55.89975 -12.369,10.2534 12.0937,31.9548 -17.6526,23.86365"
           id="path18057"
           style="fill:none;stroke:#000000;stroke-width:3;stroke-linecap:butt;stroke-linejoin:miter;stroke-miterlimit:2;stroke-opacity:1;stroke-dasharray:none" />
        <path
           d="m -288.30639,-101.39528 c -13.2279,34.3947 41.7069,9.5115 40.8624,34.9782 -29.1544,33.83955 28.55,1.88895 28.1133,25.17135"
           id="path18061"
           style="fill:none;stroke:#000000;stroke-width:3;stroke-linecap:butt;stroke-linejoin:miter;stroke-miterlimit:2;stroke-opacity:1;stroke-dasharray:none" />
        <path
           d="m -489.34939,5.8277204 c 25.2489,7.9060496 50.0227,0.23715 45.439,-29.0940004 14.8397,-18.1665 21.3042,-52.3821 46.4196,-37.59345 19.7129,-13.8873 47.5782,3.5517 66.0336,-18.96015 2.5269,-42.3522 29.0403,10.84995 42.1701,-3.26895"
           id="path18067"
           style="fill:none;stroke:#000000;stroke-width:3;stroke-linecap:butt;stroke-linejoin:miter;stroke-miterlimit:2;stroke-opacity:1;stroke-dasharray:none" />
        <path
           d="m -568.45899,-251.44193 c 23.9963,4.25325 39.539,-25.86465 62.1108,-15.3642 24.1797,8.01285 51.0467,-9.5901 43.8045,-34.3245 -11.6515,-11.56335 -8.0679,-27.5871 -2.9421,-40.8624"
           id="path18964"
           style="fill:none;stroke:#000000;stroke-width:3;stroke-linecap:butt;stroke-linejoin:miter;stroke-miterlimit:2;stroke-opacity:1;stroke-dasharray:none" />
        <path
           d="m 193.86981,-480.92514 c 0.9714,24.20686 -18.4273,26.38396 -33.3438,42.16996 -33.8064,20.89845 -5.6545,39.3765 -3.2689,60.80325 -18.4383,24.6807 -1.0554,51.5034 24.8443,57.86115 15.431,-1.3713 47.5764,-18.3108 43.4777,4.57665 4.5145,10.16085 8.3623,20.73975 14.0566,29.74785"
           id="path19851"
           style="fill:none;stroke:#000000;stroke-width:3;stroke-linecap:butt;stroke-linejoin:miter;stroke-miterlimit:2;stroke-opacity:1;stroke-dasharray:none" />
        <path
           d="m 154.64201,-489.75143 c -14.8224,26.94165 -38.2362,9.30584 -52.9578,2.28839 3.8923,30.84676 -44.237901,27.44611 -25.498101,46.09276 -30.8622,22.77885 20.2299,34.4805 3.269,58.84185 -36.2009,-7.08975 -21.3612,48.71205 -49.0349,28.1133 -19.5061,-0.015 -35.6688,16.2867 -44.1313,27.1326 -4.6107,26.3217 -19.3973,42.76065 -43.1507,35.63205 -4.7443,-24.24495 -6.2818,-46.63095 -22.2292,-5.2305 -17.4056,19.5624 -19.871,48.8109 -1.9614,62.11095 -18.0641,19.7316 37.1152,22.97745 36.2859,43.15065 17.8174,14.4144 28.9797,5.8854 40.5354,24.51735 6.1119,8.32605 21.3255,5.2434 20.5947,19.28715"
           id="path2876"
           style="fill:none;stroke:#000000;stroke-width:3;stroke-linecap:butt;stroke-linejoin:miter;stroke-miterlimit:2;stroke-opacity:1;stroke-dasharray:none" />
        <path
           d="m -122.56849,-461.31113 c 27.853599,11.98185 35.332899,27.5379 18.9601,45.11205 12.958399,26.25405 -18.5148,48.4656 -9.807,71.9178 -8.0703,28.64985 18.052499,34.03065 40.208599,21.5754 l 3.5959,-1.3077 3.5958,-0.32685"
           id="path3779"
           style="fill:none;stroke:#000000;stroke-width:3;stroke-linecap:butt;stroke-linejoin:miter;stroke-miterlimit:2;stroke-opacity:1;stroke-dasharray:none" />
        <path
           d="m -356.62839,-375.99053 c -4.9837,32.97885 -28.1172,68.31885 -3.9228,95.4546 36.7586,24.01635 15.3987,78.64485 -10.4607,50.3424 -30.2064,3.3327 6.8025,90.58035 43.8045,61.4571 0.117,30.15705 38.6001,36.4179 38.574,67.995"
           id="path4670"
           style="fill:none;stroke:#000000;stroke-width:3;stroke-linecap:butt;stroke-linejoin:miter;stroke-miterlimit:2;stroke-opacity:1;stroke-dasharray:none" />
        <path
           d="m -145.66369,-478.89623 c 0.3451,0.16785 -0.1275,0.2121 0,0 z"
           id="path21055"
           style="fill:#000000;fill-opacity:1;fill-rule:evenodd;stroke:none" />
        <path
           d="m 297.91451,-367.89623 c 0.7645,0.8295 -0.6579,0.51975 0,0 z"
           id="path21053"
           style="fill:#000000;fill-opacity:1;fill-rule:evenodd;stroke:none" />
        <path
           d="m -310.71049,-351.58373 c 0.129,0.17295 -0.311,0.0975 0,0 z"
           id="path21051"
           style="fill:#000000;fill-opacity:1;fill-rule:evenodd;stroke:none" />
        <path
           d="m -323.13249,-332.69303 c 0.3357,0.078 -0.3228,0.3807 0,0 z"
           id="path21049"
           style="fill:#000000;fill-opacity:1;fill-rule:evenodd;stroke:none" />
        <path
           d="m -315.02299,-324.02123 c 0.063,0.21615 -0.6354,-0.0675 0,0 z"
           id="path21047"
           style="fill:#000000;fill-opacity:1;fill-rule:evenodd;stroke:none" />
        <path
           d="m 250.05501,-295.61498 c 0.3287,0.2277 -0.1125,0.1425 0,0 z"
           id="path21045"
           style="fill:#000000;fill-opacity:1;fill-rule:evenodd;stroke:none" />
        <path
           d="m -593.69499,-288.86498 c 0.399,0.6192 -0.2688,2.49165 0,0 z"
           id="path21043"
           style="fill:#000000;fill-opacity:1;fill-rule:evenodd;stroke:none" />
        <path
           d="m 152.74251,-263.31803 c 0.3018,-0.19095 0.036,0.4305 0,0 z"
           id="path21039"
           style="fill:#000000;fill-opacity:1;fill-rule:evenodd;stroke:none" />
        <path
           d="m 132.39881,-248.69303 c 0.5334,0.3078 -0.05,0.189 0,0 z"
           id="path21037"
           style="fill:#000000;fill-opacity:1;fill-rule:evenodd;stroke:none" />
        <path
           d="m 144.07071,-248.41178 c 0.8489,0.1065 -0.4353,1.27185 0,0 z"
           id="path21033"
           style="fill:#000000;fill-opacity:1;fill-rule:evenodd;stroke:none" />
        <path
           d="m 151.61751,-139.14623 c 1.0713,1.23075 -4.0515,3.7365 0,0 z"
           id="path21031"
           style="fill:#000000;fill-opacity:1;fill-rule:evenodd;stroke:none" />
        <path
           d="m -600.39799,-72.67748 c -0.446,0.5838 -2.5458,1.164 0,0 z"
           id="path21029"
           style="fill:#000000;fill-opacity:1;fill-rule:evenodd;stroke:none" />
        <path
           d="m -535.33549,3.3069704 c 0.1455,-0.0585 -0.09,0.2508 0,0 z"
           id="path21027"
           style="fill:#000000;fill-opacity:1;fill-rule:evenodd;stroke:none" />
        <path
           d="m 298.05501,537.49453 c -0.015,0.3993 -0.3123,-0.111 0,0 z"
           id="path21025"
           style="fill:#000000;fill-opacity:1;fill-rule:evenodd;stroke:none" />
        <path
           d="m 305.46131,537.91633 c 0.7402,0.5356 -0.1005,0.9283 0,0 z"
           id="path21023"
           style="fill:#000000;fill-opacity:1;fill-rule:evenodd;stroke:none" />
        <path
           d="m 373.19571,611.04133 c 1.9881,2.4424 -2.151,2.1856 0,0 z"
           id="path21021"
           style="fill:#000000;fill-opacity:1;fill-rule:evenodd;stroke:none" />
        <path
           d="m 455.88321,640.19753 c 0.7587,0.09 -1.1031,0.1677 0,0 z"
           id="path21017"
           style="fill:#000000;fill-opacity:1;fill-rule:evenodd;stroke:none" />
        <path
           d="m 456.96131,644.27573 c -0.135,0.5396 -0.8351,-0.2533 0,0 z"
           id="path21015"
           style="fill:#000000;fill-opacity:1;fill-rule:evenodd;stroke:none" />
        <path
           d="m 401.13321,652.47883 c -11.7192,-2.1525 -18.6322,12.4743 -2.3907,7.828 5.9564,2.4974 8.4299,-8.0259 2.3907,-7.828 z"
           id="path21013"
           style="fill:#000000;fill-opacity:1;fill-rule:evenodd;stroke:none" />
        <path
           d="m 393.39881,657.63503 c 1.3464,-0.046 -0.054,0.9 0,0 z"
           id="path21011"
           style="fill:#000000;fill-opacity:1;fill-rule:evenodd;stroke:none" />
        <path
           d="m 499.43001,688.47883 c -0.069,0.3645 -0.897,-0.095 0,0 z"
           id="path21009"
           style="fill:#000000;fill-opacity:1;fill-rule:evenodd;stroke:none" />
        <path
           d="m 727.52381,959.08823 c 0.2208,0.6123 -0.3795,0.1125 0,0 z"
           id="path20978"
           style="fill:#000000;fill-opacity:1;fill-rule:evenodd;stroke:none" />
        <rect
           width="1637.4979"
           height="2117.99"
           x="-647.32037"
           y="-583.7757"
           id="rect3474"
           style="fill:none;stroke:#000000;stroke-width:5;stroke-miterlimit:4;stroke-opacity:1;stroke-dasharray:none" />
      </g>
      <path
         d="m 2024.3155,-1371.5413 c -1.3075,8.7765 -16.1988,12.6935 -16.4711,19.2377 -2.2144,0.3909 -1.4148,-6.9549 -4.1923,-7.8929 -3.0671,-3.5145 -4.5673,1.9291 -7.8783,1.0975 -2.0249,0.5731 1.3282,5.0202 -0.6967,5.5933 -0.9558,0.161 -2.8221,1.4246 -3.6104,1.9384 1.6771,2.5602 -1.8899,2.4072 -1.8899,3.2902 -0.4671,1.2428 -3.4924,-1.5376 -4.0365,-0.243 -1.2543,-1.2818 -1.8877,-1.0476 -3.6148,-1.7429 -3.4543,-1.3904 -7.299,-2.0162 -9.3462,-4.1448 -4.7116,8.8472 -13.8634,-2.9869 -15.6777,-7.1669 -2.7961,-7.7767 -20.2766,-3.7496 -11.8703,-13.662 8.0321,-0.2073 9.0131,4.0694 13.886,-4.3673 -7.4772,-3.2226 -12.7811,-13.309 -10.3025,-19.2611 3.8425,-8.0364 11.9112,-4.782 14.3339,-13.326 3.585,-8.3383 13.7365,-5.4502 21.1648,-10.7505 l 1.0568,3.8743 1.3696,3.9377 2.0389,5.0428 3.4241,6.5368 4.5447,5.7276 5.6653,4.4824 3.6731,3.4863 4.2956,5.0428 3.4864,3.4241 3.424,2.3657 2.8016,1.0583 1.8054,0.5603 0.1245,1.5564 0.5603,1.7432 1.4319,2.179 0.4998,0.3826 z"
         id="path3250"
         style="color:#000000;fill:#ff0000;fill-opacity:1;stroke:#000000;stroke-width:1.0276866;stroke-linecap:butt;stroke-linejoin:round;stroke-miterlimit:4;stroke-opacity:1;stroke-dasharray:none;stroke-dashoffset:0;marker:none;visibility:visible;display:inline;overflow:visible;enable-background:accumulate" />
    </g>
  </g>
  <g
     transform="translate(760.12073,761.23234)"
     id="layer5"
     style="display:inline">
    <path
       d="m 815.33942,26.583046 -3.71095,-6.1328 -6.71875,-5.46875 -5.3125,-5 -9.0625,-4.375 -7.65625,-9.375 -9.53125,-7.96875 -6.5625,-8.75 -12.1875,-7.1875 -8.75,-7.1875 -9.0625,-9.6875 -4.0625,-10 -5.46875,-5 -4.21875,-8.125 -5.9375,-7.34375 -8.28125,-6.40625 c 0,0 -7.18775,-6.71875 -7.34375,-7.34375 -0.156,-0.625 -3.4375,-8.125 -3.4375,-8.125 l -6.5625,-8.593746 -5.3125,-9.0625 -6.71695,-6.79735 -12.24315,3.1066 -12.8163,0 -17.01475,3.7565 -11.04855,1.98875 -9.7227,0.221 -14.36315,-3.53555 -43.7522,-5.52425 -37.56505,-2.8726 -5.74525,-3.0936 -10.38565,-6.8501 -14.80505,-4.6404 -9.5017,-3.0936 -5.08235,-6.18715 -6.1872,-0.8839 -5.9662,5.0823 -8.3969,4.8614 -8.61785,5.0823 -15.68895,11.04855 -7.95495,6.62915 -7.29205,15.6889 -2.2097,9.280796 -12.1534,12.1534 -15.6889,7.29205 -14.80505,6.18715 -6.40815,6.62915 -20.5503,7.292 -20.5503,11.4905 -1.32585,3.53555 -13.25825,-2.2097 -3.7565,-3.7565 -26.07455,-2.65165 -3.53555,-2.87265 -11.49045,0.221 -6.1872,4.64035 -8.3969,3.7565 -14.80505,3.75655 -14.58405,8.39685 -2.87265,5.3033 -4.19845,5.5243 0,4.86135 4.86135,5.3033 5.74525,2.2097 9.50175,4.86135 c 0,0 0.221,6.1872 0.221,7.734 0,1.5468 -6.40815,6.8501 -6.40815,6.8501 l -14.80505,9.7227 -12.3744,3.7565 -12.37435,13.25825 -8.3969,11.04855 -8.222,4.86385 1.8135,8.17345 5.0823,9.0598 4.41945,9.7227 7.29205,5.74525 9.50175,11.490504 8.61785,8.61785 8.83885,8.3969 13.03725,12.59535 7.95495,8.83885 2.4307,6.40815 -2.87265,6.18715 -3.7565,7.29205 -5.9662,6.62915 -3.7565,9.28075 0,10.16465 4.4194,11.93245 2.65165,8.61785 3.7565,12.1534 6.62915,13.47925 4.4194,19.4454 3.0936,17.6777 4.6404,20.5503 c 0,0 0.88385,12.8163 0.88385,13.70015 0,0.8839 0.442,12.1534 0.442,12.1534 l -1.76775,22.981 -3.31455,7.29205 -4.86135,5.0823 -7.51305,8.3969 -4.19845,8.17595 -6.40815,7.07105 -3.0936,5.74525 0.221,5.52425 3.0936,7.734 3.7565,6.18715 3.31455,6.62915 4.4194,7.513 0.442,8.61785 -1.10485,8.6179 -5.0823,12.59535 -4.6404,19.6664 -0.6629,5.9662 0.221,8.83885 -3.9775,12.1534 -3.31455,11.49045 c 0,0 -3.97745,12.5954 -4.86135,12.1534 -0.8839,-0.442 -1.5468,13.9212 -1.5468,13.9212 l -5.08235,2.8726 0.221,4.6404 5.3033,3.31455 4.86135,0.221 10.38565,2.4307 5.3033,-1.76775 7.73395,-4.8614 5.3033,-3.97745 8.3969,-0.221 13.0373,0 8.3969,3.7565 12.5953,-1.10485 7.29205,-3.53555 3.53555,-4.86135 10.16465,-6.1872 7.07105,-3.0936 5.74525,-5.3033 6.62915,-6.6291 4.86135,-0.8839 4.4194,6.6291 4.41945,7.51305 7.07105,7.513 6.62915,10.6066 7.07105,6.1872 3.53555,9.7227 11.9324,7.95495 12.8163,3.97745 7.51305,7.955 17.67765,7.95495 7.513,2.65165 7.95495,10.16465 14.0622,13.1131 8.90625,11.875 14.0625,13.4375 c 0,0 14.6875,4.68775 15.3125,4.84375 0.625,0.156 20,3.28125 20,3.28125 l 11.5625,2.03125 38.4375,0.625 24.375,-0.469 12.9005,0.9475 1.63075,-5.16605 8.90625,-12.5 5.3125,-7.8125 6.5625,-7.8125 -1.5625,-18.125 -4.375,-8.125 -1.875,-17.1875 3.75,-11.5625 3.4375,-9.0625 7.1875,-9.375 -0.3125,-10.625 -5.9375,-9.6875 -5,-12.1875 -3.75,-10.3125 -7.1875,-15.3125 -0.9375,-16.25 12.1875,-15.625 8.75,-11.875 6.5625,-19.375 1.875,-35.3125 c 0,0 5.3125,-9.375 6.25,-10.9375 0.9375,-1.5625 3.75,-8.4375 3.75,-8.4375 l -2.1875,-7.8125 -12.1875,-12.1875 -6.71875,-5.78125 -10.39065,-4.4531 -4.1406,-6.40625 1.71875,-6.7969 8.35935,-12.2656 3.59375,-9.14065 c 0,0 3.90615,-5.93775 4.14065,-6.40625 0.2345,-0.4685 -7.03125,-3.5156 -7.03125,-3.5156 l -7.1875,-5 -9.53125,-2.57815 -9.53125,-10.9375 -6.01565,-6.25 -3.75,-8.125 5,-6.25 5.39065,-10.0781 8.90625,-5.3125 10.46875,-5.07815 11.17185,-5.0781 3.28125,-7.4219 1.7969,-6.17185 4.375,-9.375 4.29685,-11.64065 5.3125,-10.625 5.2344,-9.21875 9.7656,-10.78125 4.6094,-9.84375 5,-11.40625 5.23435,-8.125 0.78125,-19.84375 2.1875,-10.937504 3.20315,-6.09375 2.65625,-11.71875 10.9375,-10.9375 1.17185,-8.59375 8.0469,-5.85935 15.78125,-6.25 10.3125,-2.7344 c 0,0 8.75,3.04675 9.4531,3.28125 0.70315,0.2345 16.7969,4.14065 16.7969,4.14065 l 2.96875,2.96875 15.3906,-2.8125 10.07815,-4.45315 10.0781,-5.15625 8.0469,-4.21875 14.0625,-4.92185 6.3672,-4.41405 z"
       id="path3761"
       style="fill:#6ec059;fill-opacity:1;stroke:#000000;stroke-width:2;stroke-linecap:butt;stroke-linejoin:round;stroke-miterlimit:4;stroke-opacity:1;stroke-dasharray:none" />
  </g>
  <g
     transform="translate(760.12073,761.23234)"
     id="layer4"
     style="display:inline">
    <path
       d="m 593.03472,641.85645 5.9375,6.40625 c 0,0 4.0625,4.375 5.9375,4.375 1.875,0 4.0625,10 4.0625,10 l 5.625,8.4375 0.9375,9.375 -2.8125,9.375 -1.25,12.1875 -0.3125,23.125 -2.1875,14.6875 -2.8125,20.3125 -4.0625,10 0.3125,20.625 3.4375,15.9375 4.0625,10.625 5.625,4.6875 -0.3125,11.875 -4.0625,11.5625 -6.25,10.625 -5,9.6875 -4.6875,10.9375 0.9375,15.625 2.5,14.0625 3.4375,17.1875 3.4375,9.375 3.4375,8.4375 4.375,7.5 5.625,5 6.875,-1.25 8.75,-3.125 5.3125,-3.4375 3.4375,3.125 c 0,0 2.8125,5.3125 3.4375,6.5625 0.625,1.25 3.4375,2.1875 3.4375,2.1875 l 2.8125,8.125 3.125,8.4375 5.9375,0.625 6.5625,-2.1875 4.375,-3.4375 5.3125,-2.5 5.625,-3.125 10.625,-4.0625 6.875,-3.125 5,-7.5 7.1875,0 5.3125,5.3125 6.5625,5 11.40625,5.625 9.53135,5.4688 7.1875,7.1875 13.75,7.96875 4.61275,4.35905 2.90025,3.05195 -5.85565,12.44325 -2.65165,9.9437 -5.74525,7.513 -5.96625,6.8501 -10.16465,5.5243 -7.73395,11.7114 -4.8614,11.9325 -4.64035,3.5355 -16.57285,-3.7565 -7.95495,-2.4307 -11.2695,-3.7565 -6.6291,-0.221 -5.3033,4.1985 -5.96625,4.4194 -5.3033,7.292 -4.86135,7.513 -0.8839,4.8614 2.4307,5.0823 4.86135,9.2808 7.734,11.9324 5.52425,9.2808 5.96625,11.0486 1.9887,7.7339 4.41945,7.513 3.97745,11.4905 5.9662,5.0824 7.29205,6.1871 8.17595,3.9775 4.4194,6.4082 1.76775,11.4905 -12.5953,6.8501 -6.4082,0 -14.1421,4.8613 -17.4567,1.1049 -10.6066,5.0823 -11.93245,6.6291 -13.25825,5.0824 -9.50175,6.8501 -8.61785,4.4194 -4.19845,7.9549 -3.31455,15.026 -1.7678,6.4082 -8.61785,-2.4307 -7.07105,-5.3033 -5.96625,-5.0823 -8.8388,1.1048 -3.3146,-4.4194 -10.3856,-0.6629 c 0,0 -5.08235,5.7453 -5.9662,6.4082 -0.8839,0.6629 -5.96625,6.6291 -5.96625,6.6291 l -4.19845,8.1759 -8.61785,13.4792 c 0,0 -8.39685,8.8389 -8.61785,9.7228 -0.221,0.8838 -9.72275,6.4081 -9.72275,6.4081 l -5.0823,2.8726 -10.16465,0.442 -4.86135,5.7453 -5.96625,6.6291 -5.74525,6.1872 -2.8726,5.3033 -5.3033,2.4307 -8.83885,-2.4307 -5.9662,-3.3146 -10.38565,-5.9662 -10.82755,-3.5355 -11.93245,-0.6629 -9.28075,3.5355 -4.6404,1.7678 -2.2097,4.8613 -4.4194,0.221 -3.75655,-3.9774 -7.292,-11.7115 -11.93245,-11.0485 -7.73395,-8.8389 -10.8276,-3.9775 -13.0373,-13.7001 -6.18715,-8.3969 -13.7002,-13.2583 -4.86135,-2.2097 -11.71145,0 -7.51305,2.4307 -5.3033,1.7677 -17.01475,1.9888 -5.3033,-2.4307 -6.6291,-9.2808 -10.38565,-10.1646 -14.3631,-5.5243 -9.0598,-9.7227 -11.2695,-6.8501 -6.62915,0.442 -5.3033,6.6291 -18.3406,7.513 -18.1196,0.221 -15.9099,-5.3033 c 0,0 -8.61785,-6.6291 -9.28075,-7.7339 -0.66295,-1.1049 -7.95495,-7.734 -7.95495,-7.734 l -5.96625,-15.689 c 0,0 -5.96615,-15.4679 -6.18715,-16.7937 -0.221,-1.3259 -6.62915,-13.0373 -6.62915,-13.0373 l -7.07105,-13.7002 -4.41945,-9.2808 -5.52425,0.442 -6.1872,2.4307 -6.40815,4.6404 -3.97745,2.4307 -7.95495,0.6629 -7.51305,-4.4194 -9.50175,-7.513 -10.6066,-9.0598 -10.3856,-8.8389 -6.1872,-2.2097 -14.3631,1.7678 -11.2695,9.0598 -8.3969,9.9437 -9.7227,7.0711 -13.0373,12.5953 -12.37435,13.4792 -13.7002,7.2921 -11.71145,4.4194 -26.95845,5.0823 -3.0936,4.4194 c 0,0 -16.7938,-0.8839 -18.56155,-1.5468 -1.7678,-0.6629 -15.9099,-8.8388 -15.9099,-8.8388 l -11.26955,-5.3033 -6.6291,-12.5953 c 0,0 -3.9775,-19.6665 -3.9775,-20.5503 0,-0.8839 -7.292,-11.7115 -7.292,-11.7115 l -8.6179,-7.513 -35.5763,-1.5468 -8.3969,-6.1872 -8.1759,-8.1759 -19.2245,-10.8276 -15.9099,-6.8501 -13.03725,-5.5242 -19.8874,-2.6517 -13.25825,-1.1049 -17.67765,2.4307 -10.8276,3.9775 -4.86135,3.3146 -5.74525,0.221 -5.9662,-7.513 -1.76775,-9.2808 -2.4307,-21.8761 -0.8839,-24.5278 -0.442,-8.8388 5.0823,-9.28075 2.2097,-10.1647 1.5468,-6.8501 4.41945,-9.28075 7.07105,-7.95495 0.442,-16.5728 -2.65165,-15.468 c 0,0 -8.8388,-10.6066 -9.2808,-11.49045 -0.442,-0.8839 -8.1759,-4.86135 -8.1759,-4.86135 l -15.247,-4.41945 -11.71145,-2.43065 -5.74525,-7.95495 -7.95495,-9.9437 -5.9662,-9.9437 -16.1309,-3.53555 -18.1196,-2.8726 -19.22445,-3.31455 c 0,0 -11.4905,-5.0823 -12.3744,-5.5243 -0.88385,-0.442 -9.50175,-6.8501 -9.50175,-6.8501 l -10.6066,-8.3969 -10.16465,-9.50175 -21.65515,-14.3631 -11.2695,-9.50175 -13.0373,-9.28075 -8.39685,-4.19845 -18.78255,-6.40815 -8.61785,-3.31455 -5.9663,-5.30335 -17.89865,-8.6179 -7.51305,-3.7565 -17.01475,-9.50175 -13.4792,-8.1759 -10.38565,-5.5243 -8.61785,-6.8501 -9.0598,-3.5355 -4.86135,-2.65165 -8.3969,0.221 -3.9775,0.6629 -7.95495,8.6179 -3.7565,3.97745 -4.19845,4.41945 -15.026,0 -5.9662,-5.5243 -9.2808,-3.0936 -7.95495,-5.74525 -13.7002,-4.19845 -6.40815,-5.7452 -8.61785,-13.47925 -5.5243,-9.28075 -1.9887,-11.4905 -3.0936,-18.56155 -0.221,-32.0408 -3.31455,-5.9662 -2.2097,-23.6439 1.3258,-23.64385 5.08235,-3.3146 11.04855,-4.1984 3.97745,-1.98875 9.2808,-5.5243 8.1759,-3.09355 9.05985,-5.30335 7.513,-7.95495 9.28075,-8.39685 9.2808,-8.3969 1.76775,-6.62915 3.53555,-9.28075 5.52425,-8.3969 4.41945,-8.17595 0.442,-12.1534 4.6404,-16.3518 3.53555,-5.96625 5.3033,2.2097 7.513,3.75655 8.3969,2.8726 c 0,0 8.61785,4.19845 10.6066,6.1872 1.98875,1.9887 17.89865,5.0823 17.89865,5.0823 l 7.29205,3.9775 8.61785,3.0936 11.2695,3.31455 13.47925,3.97745 4.19845,3.0936 5.9662,3.7565 8.61785,4.6404 9.9437,4.6404 9.50175,4.19845 c 0,0 9.7227,6.18715 9.7227,7.07105 0,0.8839 13.47925,6.40815 13.47925,6.40815 l 8.61785,5.74525 3.53555,5.5243 8.8388,5.9662 9.72275,0 5.7452,-3.31455 3.75655,-3.53555 14.1421,-8.17595 3.3146,-7.292 6.85005,-4.41945 c 0,0 3.9775,3.3146 5.3033,4.41945 1.32585,1.10485 5.08235,7.73395 5.08235,7.73395 l 8.61785,9.9437 7.0711,2.65165 5.3033,-4.19845 9.28075,-3.7565 5.96625,-3.97745 5.3033,-7.51305 4.1984,-6.40815 0.221,-6.40815 -3.31455,-4.86135 -3.9775,-10.8276 -2.65165,-4.1984 2.65165,-5.74525 2.2097,-11.93245 7.95495,-6.8501 17.6777,-2.8726 43.9732,-0.221 3.97745,-1.5468 4.6404,-5.7452 1.98875,-5.96625 -1.98875,-7.95495 -4.4194,-5.52425 -21.4342,-3.9775 -9.50175,-2.2097 -19.4454,-1.98875 -6.62915,-2.2097 -4.19845,-5.52425 -2.65165,-11.4905 -4.19845,-7.73395 -1.98875,-11.04855 -7.73395,-6.62915 -10.16465,-2.43065 -7.734,-3.53555 -10.82755,-4.86135 -6.1872,-2.20975 -4.6404,-8.61785 -3.0936,-8.8388 -9.28075,-9.50175 -4.41945,-13.0373 -8.39685,-9.50175 -7.51305,-5.08235 -11.9324,-9.94365 -8.3969,-5.96625 -3.7565,-7.95495 -2.87265,-7.73395 -3.5355,-9.0598 -2.65165,-16.57285 -2.2097,-8.61785 -2.87265,-15.68895 -3.31455,-9.7227 -3.31455,-9.0598 -10.8276,-5.74525 -8.3969,-1.98875 -4.86135,-5.52425 -6.6291,-6.40815 -6.1872,-3.31455 -6.1872,-3.3146 -8.1759,-3.97745 -6.8501,-1.5468 -2.65165,-8.3969 -4.19845,-14.5841 -2.87265,-6.6291 1.5468,-9.0598 3.9775,-2.65165 3.53555,-6.40815 5.7452,-9.50175 3.3146,-8.6179 3.97745,-9.0598 2.4307,-10.3856 3.97745,-5.08235 5.08235,-7.513 0.221,-3.31455 -3.7565,-4.861404 -11.2695,-7.07105 -8.83885,-4.86135 -5.9662,-5.3033 -11.04855,-4.19845 -5.08235,-4.86135 -4.86135,-3.53555 -6.40815,-12.8163 -3.97745,-10.16465 -4.41945,-7.734 -3.7565,-4.86135 0.221,-7.29205 2.43065,-6.1872 0,-8.61785 4.86135,-10.16465 10.6066,-4.86135 c 0,0 7.29205,-3.7565 7.955,-4.6404 0.6629,-0.8839 8.1759,-5.3033 8.1759,-5.3033 l 10.82755,-7.07105 3.9775,-6.8501 3.97745,-11.71145 1.98875,-7.29205 -1.98875,-8.3969 -3.97745,-26.95845 -3.7565,-12.37435 -4.86135,-9.722746 -12.59535,-11.04855 -8.3969,-5.7452 -5.74525,-8.17595 -0.221,-9.0598 2.2097,-6.1872 4.19845,-4.4194 10.16465,-3.7565 22.53905,-7.07105 6.6291,-5.08235 1.76775,-39.3328 3.53555,-4.19845 7.734,-9.72275 5.9662,-6.6291 3.9775,-2.2097 c 0,0 5.0823,3.5355 8.1759,4.4194 3.0936,0.8839 7.07105,2.65165 7.07105,2.65165 l 16.1309,6.40815 13.03725,1.5468 c 0,0 42.6474,1.9887 44.8571,2.4307 2.2097,0.442 11.2695,3.31455 11.2695,3.31455 l 10.8276,7.513 10.82755,6.40815 17.01475,0 14.5841,-3.97745 34.2505,-2.65165 9.0598,-6.62915 15.46795,-4.19845 10.3005,-7.8711 8.0401,8.42355 9.39125,9.1703 5.08235,10.71705 6.5186,10.27515 2.76215,19.44545 1.6573,14.4736 4.75085,10.93805 c 0,0 5.3033,13.5897 5.9662,14.69455 0.66295,1.10485 7.40255,10.6066 7.40255,10.6066 l 3.65405,7.5539 9.6875,3.437496 9.0625,7.1875 12.1875,10.625 6.5625,10.3125 9.0625,9.375 10,11.25 2.5,6.5625 5,5 13.125,3.4375 13.125,5.625 c 0,0 4.375,8.75 5.625,8.75 1.25,0 13.125,3.125 13.125,3.125 l 7.8125,6.25 11.5625,2.1875 8.75,15.3125 7.5,7.8125 5.3125,4.0625 c 0,0 16.5625,3.4375 18.125,3.125 1.5625,-0.3125 9.6875,0.9375 9.6875,0.9375 l 8.4375,0 12.5,-1.875 16.875,-4.0625 14.375,-1.5625 7.5,0.3125 18.4375,4.375 21.25,4.375 25.625,4.375 19.6875,0 23.125,-0.9375 11.875,-2.5 20.625,0 10,5.3125 9.6875,5 10.9375,1.25 10.3125,11.5625 7.3505,9.60325 1.93075,8.1832 5.0823,9.0598 4.41945,9.7227 7.29205,5.74525 9.50175,11.490504 8.61785,8.61785 8.83885,8.3969 13.03725,12.59535 7.95495,8.83885 2.4307,6.40815 -2.87265,6.18715 -3.7565,7.29205 -5.9662,6.62915 -3.7565,9.28075 0,10.16465 4.4194,11.93245 2.65165,8.61785 3.7565,12.1534 6.62915,13.47925 4.4194,19.4454 3.0936,17.6777 4.6404,20.5503 c 0,0 0.88385,12.8163 0.88385,13.70015 0,0.8839 0.442,12.1534 0.442,12.1534 l -1.76775,22.981 -3.31455,7.29205 -4.86135,5.0823 -7.51305,8.3969 -4.19845,8.17595 -6.40815,7.07105 -3.0936,5.74525 0.221,5.52425 3.0936,7.734 3.7565,6.18715 3.31455,6.62915 4.4194,7.513 0.442,8.61785 -1.10485,8.6179 -5.0823,12.59535 -4.6404,19.6664 -0.6629,5.9662 0.221,8.83885 -3.9775,12.1534 -3.31455,11.49045 c 0,0 -3.97745,12.5954 -4.86135,12.1534 -0.8839,-0.442 -1.5468,13.9212 -1.5468,13.9212 l -5.08235,2.8726 0.221,4.6404 5.3033,3.31455 4.86135,0.221 10.38565,2.4307 5.3033,-1.76775 7.73395,-4.8614 5.3033,-3.97745 8.3969,-0.221 13.0373,0 8.3969,3.7565 12.5953,-1.10485 7.29205,-3.53555 3.53555,-4.86135 10.16465,-6.1872 7.07105,-3.0936 5.74525,-5.3033 6.62915,-6.6291 4.86135,-0.8839 4.4194,6.6291 4.41945,7.51305 7.07105,7.513 6.62915,10.6066 7.07105,6.1872 3.53555,9.7227 11.9324,7.95495 12.8163,3.97745 7.51305,7.955 17.67765,7.95495 7.513,2.65165 7.95495,10.16465 14.0622,13.1131 8.90625,11.875 14.0625,13.4375 c 0,0 14.6875,4.68775 15.3125,4.84375 0.625,0.156 20,3.28125 20,3.28125 l 11.5625,2.03125 38.4375,0.625 24.375,-0.469 13.125,0.93775 z"
       id="path3741"
       style="fill:#f8c300;fill-opacity:1;stroke:#000000;stroke-width:2;stroke-linecap:butt;stroke-linejoin:round;stroke-miterlimit:4;stroke-opacity:1;stroke-dasharray:none" />
    <text
       x="-171.78407"
       y="-252.55754"
       id="text3671"
       xml:space="preserve"
       style="font-size:171.45539856px;font-style:normal;font-weight:normal;fill:#000000;fill-opacity:1;stroke:none;font-family:Bitstream Vera Sans"><tspan
         x="-171.78407"
         y="-252.55754"
         id="tspan3673">Teramo</tspan></text>
    <text
       x="-454.68335"
       y="777.03613"
       id="text3671-1"
       xml:space="preserve"
       style="font-size:216.17138672px;font-style:normal;font-weight:normal;fill:#000000;fill-opacity:1;stroke:none;display:inline;font-family:Bitstream Vera Sans"><tspan
         x="-454.68335"
         y="777.03613"
         id="tspan3673-7">L'Aquila</tspan></text>
  </g>
  <g
     transform="translate(760.12073,761.23234)"
     id="layer6"
     style="display:inline">
    <path
       d="m 775.32302,993.02755 -3.30055,-2.9058 -4.61275,-4.35905 -13.75,-7.96875 -7.1875,-7.1875 -9.53125,-5.46875 -11.40625,-5.625 -6.5625,-5 -5.3125,-5.3125 -7.1875,0 -5,7.5 -6.875,3.125 -10.625,4.0625 -5.625,3.125 -5.3125,2.5 -4.375,3.4375 -6.5625,2.1875 -5.9375,-0.625 -3.125,-8.4375 -2.8125,-8.125 c 0,0 -2.8125,-0.9375 -3.4375,-2.1875 -0.625,-1.25 -3.4375,-6.5625 -3.4375,-6.5625 l -3.4375,-3.125 -5.3125,3.4375 -8.75,3.125 -6.875,1.25 -5.625,-5 -4.375,-7.5 -3.4375,-8.4375 -3.4375,-9.375 -3.4375,-17.1875 -2.5,-14.0625 -0.9375,-15.625 4.6875,-10.9375 5,-9.6875 6.25,-10.625 4.0625,-11.5625 0.3125,-11.875 -5.625,-4.6875 -4.0625,-10.625 -3.4375,-15.9375 -0.3125,-20.625 4.0625,-10 2.8125,-20.3125 2.1875,-14.6875 0.3125,-23.125 1.25,-12.1875 2.8125,-9.375 -0.9375,-9.375 -5.625,-8.4375 c 0,0 -2.1875,-10 -4.0625,-10 -1.875,0 -5.9375,-4.375 -5.9375,-4.375 l -5.8495,-6.24025 1.31825,-5.32225 8.90625,-12.5 5.3125,-7.8125 6.5625,-7.8125 -1.5625,-18.125 -4.375,-8.125 -1.875,-17.1875 3.75,-11.5625 3.4375,-9.0625 7.1875,-9.375 -0.3125,-10.625 -5.9375,-9.6875 -5,-12.1875 -3.75,-10.3125 -7.1875,-15.3125 -0.9375,-16.25 12.1875,-15.625 8.75,-11.875 6.5625,-19.375 1.875,-35.3125 c 0,0 5.3125,-9.375 6.25,-10.9375 0.9375,-1.5625 3.75,-8.4375 3.75,-8.4375 l -2.1875,-7.8125 -12.1875,-12.1875 -6.71875,-5.78125 -10.39065,-4.4531 -4.1406,-6.40625 1.71875,-6.7969 8.35935,-12.2656 3.59375,-9.14065 c 0,0 3.90615,-5.93775 4.14065,-6.40625 0.2345,-0.4685 -7.03125,-3.5156 -7.03125,-3.5156 l -7.1875,-5 -9.53125,-2.57815 -9.53125,-10.9375 -6.01565,-6.25 -3.75,-8.125 5,-6.25 5.39065,-10.0781 8.90625,-5.3125 10.46875,-5.07815 11.17185,-5.0781 3.28125,-7.4219 1.7969,-6.17185 4.375,-9.375 4.29685,-11.64065 5.3125,-10.625 5.2344,-9.21875 9.7656,-10.78125 4.6094,-9.84375 5,-11.40625 5.23435,-8.125 0.78125,-19.84375 2.1875,-10.937504 3.20315,-6.09375 2.65625,-11.71875 10.9375,-10.9375 1.17185,-8.59375 8.0469,-5.85935 15.78125,-6.25 10.3125,-2.7344 c 0,0 8.75,3.04675 9.4531,3.28125 0.70315,0.2345 16.7969,4.14065 16.7969,4.14065 l 2.96875,2.96875 15.3906,-2.8125 10.07815,-4.45315 10.0781,-5.15625 8.0469,-4.21875 14.0625,-4.92185 6.41335,-4.5031 4.9466,3.5369 5.74525,6.6291 12.8163,8.83885 8.3969,7.513 8.83885,8.3969 8.83885,5.74525 14.1421,8.3969 10.6066,11.4905 13.7002,7.07105 10.1647,6.629154 13.70015,7.07105 7.0711,5.74525 11.04855,4.4194 9.7227,4.4194 7.513,7.0711 7.95495,4.4194 11.4905,7.07105 10.6066,12.3744 8.39693,15.026 4.4194,21.2132 5.3033,10.6066 6.6291,5.3033 9.2808,15.02605 9.2808,13.25825 5.7452,11.9324 7.0711,7.513 15.026,6.62915 12.3744,14.14215 9.2807,7.95495 14.5841,13.25825 9.7227,7.513 10.1647,6.62915 c 0,0 4.4194,13.70015 4.8614,15.9099 0.442,2.2097 2.2097,17.67765 2.2097,17.67765 l 19.0035,10.6066 9.2807,3.53555 11.4905,10.16465 10.6066,8.83885 3.5356,10.6066 7.513,4.86135 2.2097,8.8388 9.2807,3.53555 14.1422,5.74525 14.1421,4.4194 9.7227,4.41945 8.3969,6.6291 15.468,6.1872 6.6291,4.86135 10.1647,3.9775 11.9324,2.65165 9.2808,7.95495 c 0,0 7.9549,3.5355 17.6777,4.4194 9.7227,0.8839 7.071,4.86135 7.071,4.86135 0,0 8.8389,3.9775 13.2583,4.86135 4.4194,0.8839 9.2807,6.1872 11.0485,6.1872 1.7678,0 14.1421,6.1872 14.1421,6.1872 l 11.4905,4.4194 17.2358,3.53555 5.7452,11.04855 0,17.67765 -6.1872,5.74525 c 0,0 -1.3258,7.513 -1.3258,9.28075 0,1.7678 2.6516,7.95495 2.6516,7.95495 l 4.4195,14.5841 6.1871,28.28425 1.3259,26.95845 3.0936,5.74525 5.7452,9.2808 5.7452,4.86135 7.955,8.3969 14.1421,9.28075 8.3969,7.0711 1.7678,10.16465 4.8614,2.65165 0.442,7.07105 -3.5355,7.0711 -4.4195,3.09355 -5.7452,13.25825 -5.3033,6.1872 -3.0936,19.44545 0.442,26.07455 -3.0936,7.95495 -6.1872,11.04855 -7.513,3.97745 -4.4194,6.1872 -10.6066,9.72275 -11.9324,3.97745 -8.8389,10.6066 -7.071,10.6066 -3.9775,4.86135 -1.7678,8.83885 -8.8388,7.513 -7.0711,8.3969 -5.3033,8.3969 -8.8388,5.74525 -6.6291,4.4194 -17.6777,3.53555 -9.7227,3.97745 c 0,0 0,7.95495 0,9.72275 0,1.76775 0,16.79375 0,19.88735 0,3.0936 0,9.72275 0,11.93245 0,2.2097 -1.7678,16.35185 -1.7678,16.35185 l -8.8388,10.6066 -7.0711,6.6291 -8.8388,3.53555 -12.8163,11.9324 -10.6066,8.3969 -6.1872,7.95495 -3.0936,9.72275 -1.7678,8.3969 -6.6291,8.8388 -7.955,7.513 -4.8613,4.8614 -2.2097,7.9549 -5.3033,8.3969 -6.1872,11.4905 -7.955,15.4679 -4.8613,8.8389 -11.0486,10.6066 -5.3033,9.7227 -11.0485,0.8839 -6.6291,10.1646 -6.1872,7.955 -4.4194,11.9324 -1.7678,15.026 -2.6517,9.7228 -4.4194,7.9549 -7.9549,0.8839 -7.513,3.9775 c 0,0 -9.2808,3.9774 -11.0486,4.8613 -1.7677,0.8839 -9.2808,3.5356 -11.0485,4.4194 -1.7678,0.8839 -12.3744,7.5131 -12.3744,7.5131 l -13.2582,3.9774 -2.2098,6.1872 -13.7001,1.3258 -12.3744,0 -6.1872,-2.6516 3.0936,-4.4194 2.2097,-6.6292 4.8614,-6.6291 4.4194,-7.513 0,-7.513 -7.0711,-3.5355 -3.5355,-9.2808 -7.513,-10.1647 -6.6292,-11.9324 -6.1871,-8.3969 0,-7.9549 5.7452,-6.6292 -0.442,-15.026 -3.0936,-9.7227 -2.6517,-7.955 -4.4194,-8.3968 -7.0711,-3.9775 -7.071,-6.6292 -7.0711,-2.6516 -8.39693,-7.955 -7.513,-7.071 -10.6066,-4.4194 -5.74525,-7.513 -5.7452,-6.6292 -4.8614,-8.39685 -6.6291,0.442 -3.9775,4.86135 -4.86135,5.7452 -3.0936,8.8389 -4.86135,8.8388 -3.97745,2.2097 -7.0711,-3.5355 -5.3033,-5.7453 -8.8388,-8.3969 -7.51305,-3.9774 -3.97745,-6.62915 -5.3033,-11.04855 -2.65165,-11.49045 -6.62915,-3.9775 -8.3969,-3.0936 -10.16465,-6.18715 -5.74525,-4.41945 -6.6291,-2.65165 -4.4194,-5.3033 -1.7678,-8.8388 -7.95495,-3.0936 -7.513,7.07105 -6.1872,5.3033 -8.3969,8.3969 -6.18715,3.53555 -6.62915,7.07105 -8.3969,5.3033 -7.6468,5.02085 -5.78125,4.6875 -8.0469,6.875 -2.32105,5.07735 z"
       id="path3771"
       style="fill:#cc602c;fill-opacity:1;stroke:#000000;stroke-width:2;stroke-linecap:butt;stroke-linejoin:round;stroke-miterlimit:4;stroke-opacity:1;stroke-dasharray:none" />
    <text
       x="689.06268"
       y="752.27594"
       id="text3671-0"
       xml:space="preserve"
       style="font-size:217.34281921px;font-style:normal;font-weight:normal;fill:#000000;fill-opacity:1;stroke:none;display:inline;font-family:Bitstream Vera Sans"><tspan
         x="689.06268"
         y="752.27594"
         id="tspan3673-9">Chieti</tspan></text>
    <text
       x="-80.209778"
       y="522.98102"
       transform="matrix(0.66490288,-0.74692983,0.74692983,0.66490288,0,0)"
       id="text3671-0-4"
       xml:space="preserve"
       style="font-size:148.04359436px;font-style:normal;font-weight:normal;fill:#000000;fill-opacity:1;stroke:none;display:inline;font-family:Bitstream Vera Sans"><tspan
         x="-80.209778"
         y="522.98102"
         id="tspan3673-9-8">Pescara</tspan></text>
  </g>
</svg>
